# xmcd
#
# Track frame offsets:
#	900
#	18226
#	31952
#	49278
#	60379
#	80330
#	93681
#	112057
#	126158
#	137709
#	148960
#	169736
#
# Disc length: 2422 seconds
#
# Revision: 0
# Processed by: cddbd v1.5.2PL0 Copyright (c) Steve Scherf et al.
# Submitted via: cddb-tool 0.4.7
#
DISCID=aa096a0c
DTITLE=John Fogerty - Rides Again
DYEAR=2009
DGENRE=Country
TTITLE0=Paradise
TTITLE1=Never Ending Song Of Love
TTITLE2=Garden Party
TTITLE3=I Don't Care
TTITLE4=Back Home Again
TTITLE5=I'll Be There
TTITLE6=Change In The Weather
TTITLE7=Moody River
TTITLE8=Heaven's Just A Sin Away
TTITLE9=Fallin' Fallin' Fallin'
TTITLE10=Haunted House
TTITLE11=When Will I Be Loved
EXTD=
EXTT0=
EXTT1=
EXTT2=
EXTT3=
EXTT4=
EXTT5=
EXTT6=
EXTT7=
EXTT8=
EXTT9=
EXTT10=
EXTT11=
PLAYORDER=
